<svg width="137" height="32" viewBox="0 0 137 32" fill="none" xmlns="http://www.w3.org/2000/svg">
<path d="M20.8526 15.0484C20.8116 11.5197 23.9276 9.80029 24.0779 9.7233C22.3149 7.31099 19.5816 6.97737 18.6249 6.95171C16.3289 6.72074 14.1012 8.23485 12.9396 8.23485C11.7506 8.23485 9.94656 6.96454 8.00589 7.00303C5.50488 7.04153 3.16787 8.40166 1.89687 10.506C-0.740804 14.8046 1.2272 21.1176 3.75554 24.595C5.02655 26.3015 6.50255 28.2006 8.44322 28.1236C10.3429 28.0466 11.0536 26.9944 13.3359 26.9944C15.6046 26.9944 16.2606 28.1236 18.2423 28.0851C20.2786 28.0595 21.5633 26.3785 22.7796 24.6591C24.2419 22.7087 24.8296 20.784 24.8569 20.6942C24.7886 20.6814 20.8936 19.2827 20.8526 15.0484Z" fill="white"/>
<path d="M17.1219 4.66766C18.1469 3.47433 18.8439 1.84472 18.6389 0.189453C17.1629 0.253611 15.3179 1.15182 14.2519 2.31949C13.3089 3.34601 12.4752 5.03978 12.6939 6.63089C14.3476 6.74637 16.0559 5.84817 17.1219 4.66766Z" fill="white"/>
<path d="M44.8101 23.825H38.3458L36.7878 28.1364H34.0544L40.1771 12.1997H43.0197L49.1424 28.1364H46.3544L44.8101 23.825ZM39.0154 21.8361H44.1404L41.6121 14.843H41.5437L39.0154 21.8361Z" fill="white"/>
<path d="M62.3853 22.3241C62.3853 25.9298 60.3216 28.2523 57.2194 28.2523C55.4564 28.2523 54.0624 27.5081 53.3244 26.2249H53.2697V31.9734H50.7278V16.5115H53.1877V18.449H53.2287C53.9394 17.2044 55.4427 16.396 57.1647 16.396C60.3216 16.396 62.3853 18.7185 62.3853 22.3241ZM59.775 22.3241C59.775 19.976 58.4767 18.4234 56.5087 18.4234C54.5681 18.4234 53.2561 20.0016 53.2561 22.3241C53.2561 24.6595 54.5681 26.2377 56.5087 26.2377C58.4767 26.2377 59.775 24.698 59.775 22.3241Z" fill="white"/>
<path d="M75.9978 22.3241C75.9978 25.9298 73.9341 28.2523 70.8318 28.2523C69.0688 28.2523 67.6748 27.5081 66.9368 26.2249H66.8821V31.9734H64.3538V16.5115H66.8138V18.449H66.8548C67.5654 17.2044 69.0688 16.396 70.7908 16.396C73.9341 16.396 75.9978 18.7185 75.9978 22.3241ZM73.3874 22.3241C73.3874 19.976 72.0891 18.4234 70.1211 18.4234C68.1804 18.4234 66.8684 20.0016 66.8684 22.3241C66.8684 24.6595 68.1804 26.2377 70.1211 26.2377C72.1028 26.2377 73.3874 24.698 73.3874 22.3241Z" fill="white"/>
<path d="M85.0041 23.6966C85.1955 25.2749 86.8218 26.3143 89.0631 26.3143C91.2088 26.3143 92.7395 25.2749 92.7395 23.8506C92.7395 22.6188 91.8101 21.8746 89.6098 21.3613L87.4095 20.8609C84.2935 20.1552 82.8448 18.7822 82.8448 16.5623C82.8448 13.8164 85.4005 11.9302 89.0221 11.9302C92.6028 11.9302 95.0628 13.8164 95.1448 16.5623H92.5755C92.4251 14.9712 91.0175 14.0089 88.9811 14.0089C86.9448 14.0089 85.5371 14.9841 85.5371 16.3955C85.5371 17.5247 86.4255 18.1791 88.6121 18.6924L90.4845 19.1286C93.9695 19.8985 95.4181 21.2202 95.4181 23.5427C95.4181 26.5196 92.8898 28.393 88.8718 28.393C85.1135 28.393 82.5715 26.5709 82.4075 23.6838H85.0041V23.6966Z" fill="white"/>
<path d="M100.911 13.7646V16.5106H103.261V18.3968H100.911V24.7997C100.911 25.8006 101.376 26.2625 102.414 26.2625C102.674 26.2625 103.084 26.224 103.248 26.2112V28.0846C102.961 28.1487 102.4 28.2 101.84 28.2C99.3392 28.2 98.3552 27.3147 98.3552 25.0692V18.4096H96.5513V16.5234H98.3552V13.7646H100.911Z" fill="white"/>
<path d="M104.615 22.3234C104.615 18.6665 106.911 16.3696 110.478 16.3696C114.059 16.3696 116.341 18.6665 116.341 22.3234C116.341 25.9932 114.073 28.2772 110.478 28.2772C106.898 28.2772 104.615 25.9932 104.615 22.3234ZM113.772 22.3234C113.772 19.8213 112.542 18.3328 110.492 18.3328C108.442 18.3328 107.212 19.8213 107.212 22.3234C107.212 24.8384 108.428 26.314 110.492 26.314C112.556 26.314 113.772 24.8384 113.772 22.3234Z" fill="white"/>
<path d="M118.459 16.5111H120.878V18.4872H120.933C121.316 17.1784 122.45 16.3828 123.912 16.3828C124.281 16.3828 124.582 16.4341 124.787 16.4726V18.7053C124.582 18.6283 124.145 18.5642 123.653 18.5642C122.013 18.5642 121.001 19.6035 121.001 21.2331V28.1236H118.459V16.5111Z" fill="white"/>
<path d="M136.485 24.7229C136.143 26.8272 133.957 28.2772 131.155 28.2772C127.561 28.2772 125.319 26.0189 125.319 22.3747C125.319 18.7306 127.561 16.3696 131.046 16.3696C134.462 16.3696 136.622 18.5766 136.622 22.1053V22.9265H127.889V23.0676C127.889 25.0565 129.214 26.3525 131.223 26.3525C132.631 26.3525 133.738 25.7237 134.08 24.7229H136.485ZM127.902 21.2456H134.093C134.039 19.462 132.822 18.2943 131.059 18.2943C129.31 18.3072 128.039 19.5005 127.902 21.2456Z" fill="white"/>
</svg>
