<svg width="159" height="36" viewBox="0 0 159 36" fill="none" xmlns="http://www.w3.org/2000/svg">
<path d="M0.76856 1.67527C0.372226 2.07305 0.139893 2.68896 0.139893 3.47168V31.8549C0.139893 32.6505 0.372226 33.2664 0.76856 33.6513L0.864228 33.7412L17.7972 17.8558V17.6633V17.4708L0.864228 1.58545L0.76856 1.67527Z" fill="url(#paint0_linear_479_2329)"/>
<path d="M23.4435 23.1552L17.7991 17.8558V17.6633V17.4708L23.4435 12.1714L23.5665 12.2355L30.2495 15.8027C32.1629 16.8164 32.1629 18.4845 30.2495 19.511L23.5665 23.0782L23.4435 23.1552Z" fill="url(#paint1_linear_479_2329)"/>
<path d="M23.5657 23.0913L17.7984 17.6636L0.769775 33.6516C1.39844 34.2803 2.4371 34.3573 3.61243 33.7286L23.5657 23.0913Z" fill="url(#paint2_linear_479_2329)"/>
<path d="M51.3079 5.14061C51.3079 6.21846 50.9662 7.07817 50.2829 7.70691C49.5175 8.46397 48.5062 8.84891 47.2762 8.84891C46.0872 8.84891 45.0895 8.46397 44.2559 7.69408C43.4222 6.92419 43.0122 5.96183 43.0122 4.83266C43.0122 3.69066 43.4222 2.74113 44.2559 1.97124C45.0895 1.20135 46.0872 0.816406 47.2762 0.816406C47.8639 0.816406 48.4242 0.919058 48.9572 1.13719C49.4902 1.35533 49.9139 1.63762 50.2419 1.9969L49.5175 2.67697C48.9709 2.07389 48.2329 1.76594 47.2762 1.76594C46.4152 1.76594 45.6635 2.04823 45.0349 2.62564C44.4062 3.19023 44.0919 3.93446 44.0919 4.84549C44.0919 5.75653 44.4062 6.50075 45.0349 7.06534C45.6635 7.62992 46.4152 7.92505 47.2762 7.92505C48.1919 7.92505 48.9572 7.64275 49.5722 7.06534C49.9685 6.69322 50.2009 6.16713 50.2555 5.4999H47.2762V4.5632H51.2532C51.2805 4.7685 51.3079 4.96097 51.3079 5.14061Z" fill="white" stroke="white" stroke-width="0.256629" stroke-miterlimit="10"/>
<path d="M57.6079 1.93293H53.8768V4.3709H57.2389V5.29477H53.8768V7.73275H57.6079V8.68227H52.8245V0.983398H57.6079V1.93293Z" fill="white" stroke="white" stroke-width="0.256629" stroke-miterlimit="10"/>
<path d="M62.0493 8.68227H60.9969V1.93293H58.7009V0.983398H64.3316V1.93293H62.0356V8.68227H62.0493Z" fill="white" stroke="white" stroke-width="0.256629" stroke-miterlimit="10"/>
<path d="M68.4177 8.68227V0.983398H69.47V8.68227H68.4177Z" fill="white" stroke="white" stroke-width="0.256629" stroke-miterlimit="10"/>
<path d="M74.145 8.68227H73.0926V1.93293H70.7966V0.983398H76.4273V1.93293H74.1313V8.68227H74.145Z" fill="white" stroke="white" stroke-width="0.256629" stroke-miterlimit="10"/>
<path d="M87.1002 7.68076C86.2939 8.46348 85.2962 8.84842 84.0936 8.84842C82.8909 8.84842 81.8933 8.46348 81.0869 7.68076C80.2806 6.89804 79.8843 5.94851 79.8843 4.83217C79.8843 3.71583 80.2806 2.75347 81.0869 1.98358C81.8933 1.20086 82.8909 0.815918 84.0936 0.815918C85.2826 0.815918 86.2802 1.20086 87.1002 1.98358C87.9065 2.7663 88.3165 3.71583 88.3165 4.83217C88.3028 5.96134 87.9065 6.91087 87.1002 7.68076ZM81.8659 7.03919C82.4672 7.6166 83.2189 7.8989 84.0936 7.8989C84.9682 7.8989 85.7199 7.6166 86.3212 7.03919C86.9225 6.46177 87.2369 5.73037 87.2369 4.83217C87.2369 3.93397 86.9362 3.20257 86.3212 2.62516C85.7199 2.04774 84.9682 1.75262 84.0936 1.75262C83.2189 1.75262 82.4672 2.03491 81.8659 2.61233C81.2646 3.20257 80.9503 3.93397 80.9503 4.83217C80.9503 5.73037 81.2646 6.46177 81.8659 7.03919Z" fill="white" stroke="white" stroke-width="0.256629" stroke-miterlimit="10"/>
<path d="M89.7932 8.68227V0.983398H91.0778L95.0684 6.97569H95.1094L95.0684 5.48724V0.983398H96.1208V8.68227H95.0275L90.8592 2.40769H90.8182L90.8592 3.89614V8.68227H89.7932Z" fill="white" stroke="white" stroke-width="0.256629" stroke-miterlimit="10"/>
<path d="M79.6252 19.9087C76.4135 19.9087 73.7895 22.2056 73.7895 25.3621C73.7895 28.5058 76.4135 30.8155 79.6252 30.8155C82.8368 30.8155 85.4608 28.5058 85.4608 25.3621C85.4608 22.2056 82.8368 19.9087 79.6252 19.9087ZM79.6252 28.6726C77.8622 28.6726 76.3452 27.3125 76.3452 25.3621C76.3452 23.3989 77.8622 22.0516 79.6252 22.0516C81.3882 22.0516 82.9052 23.3989 82.9052 25.3621C82.9052 27.3125 81.3745 28.6726 79.6252 28.6726ZM66.8879 19.9087C63.6762 19.9087 61.0522 22.2056 61.0522 25.3621C61.0522 28.5058 63.6762 30.8155 66.8879 30.8155C70.0995 30.8155 72.7235 28.5058 72.7235 25.3621C72.7235 22.2056 70.0995 19.9087 66.8879 19.9087ZM66.8879 28.6726C65.1249 28.6726 63.6079 27.3125 63.6079 25.3621C63.6079 23.3989 65.1249 22.0516 66.8879 22.0516C68.6509 22.0516 70.1679 23.3989 70.1679 25.3621C70.1679 27.3125 68.6509 28.6726 66.8879 28.6726ZM51.7453 21.5896V23.8993H57.6492C57.4716 25.1953 57.0069 26.1577 56.3099 26.8121C55.4489 27.6204 54.1096 28.5058 51.7589 28.5058C48.1236 28.5058 45.2809 25.7599 45.2809 22.3467C45.2809 18.9335 48.1236 16.1876 51.7589 16.1876C53.7133 16.1876 55.1482 16.9062 56.2006 17.8429L57.9362 16.2133C56.4602 14.8916 54.5059 13.8779 51.7453 13.8779C46.7706 13.8779 42.5886 17.676 42.5886 22.3595C42.5886 27.0302 46.7706 30.8411 51.7453 30.8411C54.4376 30.8411 56.4602 30.0199 58.0456 28.4673C59.6719 26.9404 60.1776 24.7847 60.1776 23.0524C60.1776 22.5135 60.1366 22.0131 60.0409 21.6025H51.7453V21.5896ZM113.669 23.3861C113.19 22.1671 111.714 19.9087 108.694 19.9087C105.701 19.9087 103.214 22.1157 103.214 25.3621C103.214 28.416 105.674 30.8155 108.981 30.8155C111.646 30.8155 113.19 29.2885 113.819 28.4032L111.837 27.1585C111.181 28.0695 110.279 28.6726 108.981 28.6726C107.683 28.6726 106.753 28.108 106.166 27.0174L113.942 24.002L113.669 23.3861ZM105.742 25.2081C105.674 23.1038 107.478 22.0259 108.776 22.0259C109.787 22.0259 110.648 22.5007 110.935 23.1808L105.742 25.2081ZM99.4281 30.4947H101.984V14.4553H99.4281V30.4947ZM95.2461 21.1277H95.1505C94.5765 20.4861 93.4831 19.9087 92.0891 19.9087C89.1781 19.9087 86.5132 22.3082 86.5132 25.3878C86.5132 28.4417 89.1781 30.8283 92.0891 30.8283C93.4695 30.8283 94.5765 30.2509 95.1505 29.5837H95.2325V30.3664C95.2325 32.4579 94.0435 33.5743 92.1301 33.5743C90.5721 33.5743 89.6018 32.5221 89.2055 31.6367L86.9778 32.5092C87.6201 33.9592 89.3148 35.7299 92.1301 35.7299C95.1231 35.7299 97.6515 34.0747 97.6515 30.0456V20.2423H95.2325V21.1277H95.2461ZM92.3078 28.6726C90.5448 28.6726 89.0688 27.2868 89.0688 25.3878C89.0688 23.463 90.5448 22.0644 92.3078 22.0644C94.0435 22.0644 95.4101 23.4759 95.4101 25.3878C95.4238 27.2868 94.0571 28.6726 92.3078 28.6726ZM125.641 14.4553H119.532V30.4947H122.087V24.4126H125.654C128.483 24.4126 131.258 22.4879 131.258 19.434C131.258 16.3801 128.456 14.4553 125.641 14.4553ZM125.695 22.1799H122.074V16.6752H125.695C127.609 16.6752 128.688 18.1636 128.688 19.4211C128.688 20.6786 127.609 22.1799 125.695 22.1799ZM141.467 19.8831C139.622 19.8831 137.708 20.653 136.916 22.3339L139.184 23.2192C139.663 22.3339 140.565 22.0388 141.508 22.0388C142.833 22.0388 144.173 22.783 144.186 24.1046V24.2714C143.722 24.0276 142.738 23.6555 141.521 23.6555C139.075 23.6555 136.601 24.913 136.601 27.2612C136.601 29.404 138.597 30.7898 140.838 30.7898C142.546 30.7898 143.503 30.0713 144.091 29.2244H144.173V30.469H146.633V24.3228C146.646 21.4742 144.378 19.8831 141.467 19.8831ZM141.152 28.6726C140.319 28.6726 139.157 28.2749 139.157 27.3125C139.157 26.0807 140.606 25.6059 141.863 25.6059C142.984 25.6059 143.517 25.8369 144.186 26.1448C143.995 27.6204 142.628 28.6726 141.152 28.6726ZM155.612 20.2295L152.687 27.1842H152.605L149.571 20.2295H146.824L151.375 29.9558L148.778 35.3578H151.443L158.454 20.2295H155.612ZM132.652 30.4947H135.207V14.4553H132.652V30.4947Z" fill="white"/>
<path d="M23.5651 12.2485L3.59826 1.5984C2.42294 0.969658 1.38428 1.04665 0.755615 1.67539L17.7978 17.6634L23.5651 12.2485Z" fill="url(#paint3_linear_479_2329)"/>
<path opacity="0.2" d="M23.4414 22.9629L3.59754 33.5488C2.49055 34.1391 1.49289 34.1006 0.864222 33.5617L0.768555 33.6515L0.864222 33.7413C1.50655 34.2802 2.49055 34.3187 3.59754 33.7285L23.5644 23.0784L23.4414 22.9629Z" fill="black"/>
<path opacity="0.12" d="M0.767424 33.4717C0.371037 33.0739 0.138672 32.458 0.138672 31.6753V31.8678C0.138672 32.6633 0.371037 33.2792 0.767424 33.6642L0.863104 33.5743L0.767424 33.4717Z" fill="black"/>
<path opacity="0.12" d="M30.2489 19.3317L23.4292 22.9629L23.5522 23.0784L30.2352 19.5113C31.1919 18.998 31.6702 18.3308 31.6702 17.6636C31.6019 18.2666 31.1235 18.8697 30.2489 19.3317Z" fill="black"/>
<path opacity="0.25" d="M3.5983 1.77903L30.2484 15.9963C31.1094 16.4582 31.6014 17.0485 31.6834 17.6644C31.6834 16.9971 31.205 16.3171 30.2484 15.8167L3.5983 1.59939C1.68496 0.585708 0.126953 1.43258 0.126953 3.48562V3.67809C0.126953 1.61223 1.69862 0.765349 3.5983 1.77903Z" fill="white"/>
<defs>
<linearGradient id="paint0_linear_479_2329" x1="16.2934" y1="3.1763" x2="-5.19821" y2="26.0667" gradientUnits="userSpaceOnUse">
<stop stop-color="#00A0FF"/>
<stop offset="0.00657445" stop-color="#00A1FF"/>
<stop offset="0.2601" stop-color="#00BEFF"/>
<stop offset="0.5122" stop-color="#00D2FF"/>
<stop offset="0.7604" stop-color="#00DFFF"/>
<stop offset="1" stop-color="#00E3FF"/>
</linearGradient>
<linearGradient id="paint1_linear_479_2329" x1="32.7427" y1="17.6652" x2="-0.326632" y2="17.6652" gradientUnits="userSpaceOnUse">
<stop stop-color="#FFE000"/>
<stop offset="0.4087" stop-color="#FFBD00"/>
<stop offset="0.7754" stop-color="#FFA500"/>
<stop offset="1" stop-color="#FF9C00"/>
</linearGradient>
<linearGradient id="paint2_linear_479_2329" x1="20.4318" y1="20.6099" x2="-8.71252" y2="51.6511" gradientUnits="userSpaceOnUse">
<stop stop-color="#FF3A44"/>
<stop offset="1" stop-color="#C31162"/>
</linearGradient>
<linearGradient id="paint3_linear_479_2329" x1="-3.52585" y1="-7.77332" x2="9.48839" y2="6.08778" gradientUnits="userSpaceOnUse">
<stop stop-color="#32A071"/>
<stop offset="0.0685" stop-color="#2DA771"/>
<stop offset="0.4762" stop-color="#15CF74"/>
<stop offset="0.8009" stop-color="#06E775"/>
<stop offset="1" stop-color="#00F076"/>
</linearGradient>
</defs>
</svg>
